<?xml version="1.0" encoding="UTF-8"?>
<svg version="1.1" xmlns="http://www.w3.org/2000/svg" width="1254" height="1254">
<path d="M0 0 C413.82 0 827.64 0 1254 0 C1254 413.82 1254 827.64 1254 1254 C840.18 1254 426.36 1254 0 1254 C0 840.18 0 426.36 0 0 Z " fill="#000000" transform="translate(0,0)"/>
<path d="M0 0 C25.59080632 -0.39765777 51.18114772 -0.69716077 76.77442455 -0.88080692 C88.65885568 -0.96835663 100.54136398 -1.08764191 112.42456055 -1.2824707 C122.78582851 -1.45226557 133.14570385 -1.56166937 143.50832444 -1.59950441 C148.99287639 -1.62161375 154.47344564 -1.6733032 159.95671654 -1.79741096 C165.12665298 -1.91347043 170.29099888 -1.94827816 175.46211433 -1.92283058 C177.35171888 -1.92747955 179.24152452 -1.96093617 181.12999725 -2.02649307 C194.98753412 -2.48364775 194.98753412 -2.48364775 200.03760552 1.67991757 C203.86705767 5.75218913 206.91498982 10.25572235 209.7990042 15.02983868 C211.2895164 17.47493423 212.96252655 19.75416909 214.69140625 22.03515625 C215.65059292 23.37606496 216.60770099 24.71846352 217.5625 26.0625 C223.10284177 33.79285672 228.76900961 41.41943646 234.49853516 49.01025391 C240.98028175 57.59988558 247.4487062 66.19650068 253.7578125 74.9140625 C261.10596403 85.0273721 268.53806763 95.07972647 276.0625 105.0625 C280.91576378 111.50351491 285.64938677 118.02541519 290.35791016 124.57275391 C294.03874287 129.68569685 297.78249832 134.74492478 301.578125 139.7734375 C306.50006164 146.3094675 311.3210723 152.92156613 316.16943359 159.51220703 C319.11085589 163.50968545 322.05554693 167.50475377 325 171.5 C326.16668333 173.08332105 327.33334998 174.6666544 328.5 176.25 C329.36625 177.425625 329.36625 177.425625 330.25 178.625 C332 181 333.75 183.375 335.5 185.75 C336.07758057 186.53383057 336.65516113 187.31766113 337.25024414 188.12524414 C338.41620806 189.70768185 339.58206104 191.29020131 340.74780273 192.87280273 C343.67431443 196.84551887 346.60277534 200.81676994 349.53515625 204.78515625 C355.77471072 213.23340257 361.9706422 221.71006584 368.10791016 230.23291016 C373.75410473 238.06450814 379.4872454 245.83114194 385.22509766 253.59570312 C387.01096782 256.0148571 388.79318282 258.43666019 390.57421875 260.859375 C396.4956128 268.91243841 402.44388871 276.94305206 408.45263672 284.93115234 C416.10292136 295.1137346 423.65788319 305.36986557 431.125 315.6875 C433.83044339 319.42414023 436.58903511 323.11655939 439.36987305 326.79711914 C441.92763021 330.18741212 444.46713609 333.59108283 447 337 C447.70914551 337.95084473 447.70914551 337.95084473 448.43261719 338.92089844 C449.74070938 340.68705565 451.02954441 342.46553242 452.3125 344.25 C453.05113281 345.26578125 453.78976562 346.2815625 454.55078125 347.328125 C456 350 456 350 455.80541992 351.99121094 C454.80549542 354.48511176 453.75535385 355.28147327 451.5625 356.8125 C450.84126953 357.32425781 450.12003906 357.83601563 449.37695312 358.36328125 C448.59255859 358.90339844 447.80816406 359.44351562 447 360 C446.18982422 360.57105469 445.37964844 361.14210938 444.54492188 361.73046875 C442.03639302 363.49637951 439.51841642 365.24823085 437 367 C434.85468721 368.50924636 432.71245037 370.02277227 430.57055664 371.53686523 C429.18004168 372.51945646 427.78858829 373.50072091 426.39624023 374.48071289 C418.97222404 379.708062 411.61859269 385.03162221 404.26611328 390.35888672 C400.513552 393.07648173 396.75656581 395.78794473 393 398.5 C391.49997854 399.58330362 389.99997854 400.66663696 388.5 401.75 C379.5 408.25 379.5 408.25 377.24853516 409.87597656 C375.75331489 410.95591198 374.25819716 412.03598939 372.76318359 413.11621094 C368.94089565 415.8777244 365.11668417 418.63650813 361.2890625 421.390625 C359.7343461 422.51037654 358.17965822 423.63016768 356.625 424.75 C355.87790771 425.28713623 355.13081543 425.82427246 354.36108398 426.37768555 C350.97810764 428.81725618 347.61581454 431.27482106 344.30859375 433.81640625 C343.75413574 434.24147461 343.19967773 434.66654297 342.62841797 435.10449219 C341.17528984 436.22548969 339.72988312 437.35647693 338.28515625 438.48828125 C336 440 336 440 333 440 C331.08203125 437.89453125 331.08203125 437.89453125 328.8125 434.8125 C327.92484843 433.62212039 327.03679854 432.43203774 326.1484375 431.2421875 C325.6544043 430.57413086 325.16037109 429.90607422 324.65136719 429.21777344 C322.1438037 425.85013495 319.58842909 422.51943103 317.0378418 419.18432617 C312.16410989 412.81046151 307.30388754 406.42669792 302.5 400 C290.39031968 383.79983605 278.03373553 367.78092142 265.7265625 351.73046875 C257.80968184 341.40057831 249.97739057 331.01025279 242.19384766 320.57958984 C232.96771084 308.19732039 232.96771084 308.19732039 223.5 296 C217.15517437 288.00046663 211.06827227 279.80917736 204.96142578 271.62744141 C201.70788509 267.26913858 198.44878032 262.9150135 195.1875 258.5625 C194.56053223 257.7257373 193.93356445 256.88897461 193.28759766 256.02685547 C188.98262879 250.28955366 184.62936541 244.59253165 180.2421875 238.91796875 C178.05222527 236.06796564 175.89706371 233.19491337 173.75 230.3125 C169.88193145 225.13217374 165.91839364 220.03148973 161.9375 214.9375 C157.62546082 209.41577923 153.39810276 203.85904294 149.31640625 198.1640625 C145.26532242 192.63054158 141.07753613 187.20027803 136.91455078 181.75073242 C133.42399024 177.18099811 129.94065442 172.60742741 126.5 168 C122.36990552 162.47202739 118.18536873 156.98620717 114 151.5 C107.63026083 143.14947647 101.30513773 134.76854423 95.0234375 126.3515625 C86.72835611 115.26038626 78.3077845 104.264359 69.90478516 93.25488281 C62.61854676 83.70810826 55.34594904 74.15295724 48.15527344 64.53393555 C44.73584565 59.96515464 41.26950765 55.43511496 37.77880859 50.9206543 C34.55989908 46.74934052 31.40071457 42.53546889 28.25 38.3125 C23.21704169 31.57119681 18.0806315 24.91514973 12.89550781 18.2902832 C11.2586948 16.19733667 9.62802495 14.09978778 8 12 C7.1352002 10.89205078 7.1352002 10.89205078 6.25292969 9.76171875 C5.70282227 9.04628906 5.15271484 8.33085937 4.5859375 7.59375 C4.08884277 6.95115234 3.59174805 6.30855469 3.07958984 5.64648438 C2 4 2 4 2 2 C1.34 2 0.68 2 0 2 C0 1.34 0 0.68 0 0 Z " fill="#00F7FC" transform="translate(244,225)"/>
<path d="M0 0 C1.34528882 -0.02104219 2.69117746 -0.01420097 4.03633595 0.01396656 C4.7780222 0.00969444 5.51970845 0.00542231 6.28387004 0.00102073 C8.7764964 -0.0072347 11.26745095 0.0203154 13.75992298 0.04761219 C15.54359364 0.04902212 17.3272672 0.04823176 19.11093616 0.04539967 C23.96003031 0.04396195 28.80850915 0.07340912 33.65745997 0.10826945 C38.72232925 0.13947385 43.7872118 0.14245901 48.85216236 0.14839649 C58.44638441 0.16395236 68.04032243 0.20500442 77.63441926 0.25514394 C88.55564359 0.31098319 99.47688131 0.33851027 110.39821279 0.36362112 C132.86700363 0.41591873 155.33554213 0.50389489 177.80411243 0.61523914 C176.68918455 2.38104544 175.57246609 4.14572125 174.45499134 5.90991688 C173.52247044 7.38415371 173.52247044 7.38415371 172.57111073 8.8881731 C170.57574088 11.96769241 168.46389597 14.80763121 166.17911243 17.67773914 C162.17627638 22.77692307 158.33406481 27.97388444 154.55411243 33.24023914 C150.01323428 39.56402643 145.43253479 45.85521927 140.80411243 52.11523914 C136.25021811 58.2792042 131.72501741 64.46229411 127.24161243 70.67773914 C126.70922962 71.41564686 126.17684681 72.15355457 125.62833118 72.91382313 C122.93238302 76.65387864 120.2425853 80.39825675 117.55801868 84.14648914 C111.65675175 92.37161232 105.64629563 100.48891148 99.46597767 108.50659657 C95.76204789 113.32478489 92.18230586 118.21275916 88.67569447 123.17578602 C85.17741874 128.1194571 81.59274217 132.99609906 77.99161243 137.86523914 C73.28390889 144.23211019 68.61605301 150.62513473 63.99161243 157.05273914 C59.71521328 162.99607946 55.37272302 168.87752748 50.96036243 174.72070789 C48.63492908 177.84234941 46.36923247 181.00349016 44.11661243 184.17773914 C38.39393534 192.23726056 32.51660263 200.18088494 26.64053822 208.12891102 C24.7950754 210.62747434 22.95326153 213.128684 21.11270618 215.63086414 C11.10654791 229.2325874 11.10654791 229.2325874 6.24161243 235.67773914 C2.01336415 241.29191325 -2.08530869 246.99560657 -6.18831921 252.70142078 C-10.27886465 258.37716382 -14.45360333 263.98309867 -18.6690321 269.56641102 C-23.04495536 275.37793661 -27.3002878 281.27263033 -31.54696178 287.17895985 C-35.28842282 292.37656011 -39.09417753 297.51627146 -42.95370007 302.62695789 C-45.56201861 306.10320125 -48.13103247 309.60687748 -50.69588757 313.11523914 C-53.95726768 317.57634925 -57.24048429 322.01769964 -60.57088757 326.42773914 C-64.23814001 331.30003902 -67.8207272 336.22853848 -71.38338757 341.17773914 C-81.16814731 354.76928724 -91.10912118 368.24627099 -101.19588757 381.61523914 C-104.61494941 380.47555186 -104.9897614 379.85634666 -106.91073132 376.95898914 C-107.42563122 376.19272205 -107.94053112 375.42645496 -108.47103405 374.63696766 C-109.01961071 373.80479725 -109.56818737 372.97262684 -110.13338757 372.11523914 C-111.30936406 370.36319364 -112.48646975 368.61190559 -113.66463757 366.86133289 C-114.55409069 365.53464588 -114.55409069 365.53464588 -115.46151257 364.18115711 C-117.96619188 360.47561381 -120.54271136 356.82345569 -123.13338757 353.17773914 C-124.12189006 351.78336471 -125.1101677 350.38883085 -126.09823132 348.99414539 C-126.85015759 347.93284412 -126.85015759 347.93284412 -127.61727428 346.85010242 C-130.49098764 342.78174918 -133.34228931 338.69771373 -136.19588757 334.61523914 C-142.50269217 325.59639639 -148.84235051 316.60119885 -155.19588757 307.61523914 C-157.15474705 304.84477723 -159.11312422 302.07397577 -161.07088757 299.30273914 C-161.55654186 298.6155077 -162.04219616 297.92827625 -162.54256725 297.22021961 C-165.3232999 293.28130184 -168.09277852 289.33478848 -170.85213757 285.38086414 C-171.78050426 284.05115589 -171.78050426 284.05115589 -172.72762585 282.69458485 C-173.91996813 280.98566619 -175.11112925 279.27592253 -176.30086803 277.56519032 C-176.85145885 276.77604237 -177.40204967 275.98689442 -177.96932507 275.17383289 C-178.50009655 274.41054676 -179.03086803 273.64726063 -179.5777235 272.86084461 C-181.6727654 269.95345243 -183.92116254 267.17767815 -186.21395397 264.42407703 C-187.19588757 262.61523914 -187.19588757 262.61523914 -186.99740124 260.6059618 C-186.16054447 258.52745736 -185.20629152 256.91891112 -183.89510632 255.10352039 C-183.41887829 254.43715565 -182.94265026 253.7707909 -182.45199108 253.08423328 C-181.93435192 252.37259022 -181.41671276 251.66094715 -180.88338757 250.92773914 C-179.78163007 249.39142063 -178.68007302 247.85495835 -177.57870007 246.31836414 C-176.7322694 245.14370594 -176.7322694 245.14370594 -175.86873913 243.94531727 C-173.80052444 241.06454654 -171.76041674 238.1646981 -169.72249889 235.26245594 C-164.56026182 227.91205701 -159.32171936 220.61926386 -154.05160046 213.34595203 C-150.39601 208.29464024 -146.78237331 203.21580858 -143.19588757 198.11523914 C-139.07197556 192.25036165 -134.90270394 186.42093315 -130.69588757 180.61523914 C-125.91727631 174.01963023 -121.19232231 167.38890747 -116.50448132 160.72852039 C-113.01732936 155.77455055 -109.50489736 150.83952376 -105.97762585 145.91406727 C-102.24622394 140.69809728 -98.55651846 135.45313335 -94.8655653 130.20850086 C-91.20662428 125.02030269 -87.49123085 119.87542084 -83.75838757 114.74023914 C-79.27044626 108.56361939 -74.91449871 102.31177227 -70.63338757 95.99023914 C-66.07665216 89.26509786 -61.34536947 82.71514566 -56.43172741 76.24707508 C-52.66931924 71.28453473 -49.10485548 66.21020662 -45.59041882 61.06836414 C-42.78377872 56.9881528 -39.85970782 52.99421451 -36.94588757 48.99023914 C-31.81333924 41.92913335 -26.85201058 34.76672709 -21.95321178 27.54199696 C-18.00169574 21.73583523 -13.91800591 16.04337267 -9.70907116 10.42114735 C-7.88995985 7.98180503 -6.25456229 5.74641734 -5.00776482 2.95897102 C-3.19588757 0.61523914 -3.19588757 0.61523914 0 0 Z " fill="#FDFCFC" transform="translate(871.1958875656128,225.38476085662842)"/>
<path d="M0 0 C3.30312976 2.68672311 4.71872383 4.43789782 5.47735918 8.65107358 C5.69840512 12.04891635 5.74808118 15.41531648 5.74931335 18.82044983 C5.77900521 20.78061158 5.77900521 20.78061158 5.80929691 22.78037256 C5.8631128 26.4016392 5.88569949 30.02252438 5.90282714 33.64412582 C5.92650818 37.55247589 5.97845219 41.46047315 6.02604675 45.36859131 C6.13423074 54.80321729 6.19381542 64.23791017 6.24635026 73.67298594 C6.26677898 77.22831751 6.2901151 80.78362739 6.31349986 84.33894055 C6.41629426 100.01881029 6.50391856 115.69869371 6.55052471 131.37883854 C6.56211309 135.21406661 6.57379752 139.04929435 6.58569336 142.88452148 C6.58863668 143.83770578 6.59158 144.79089008 6.59461252 145.77295875 C6.64480947 161.21020222 6.78724959 176.6451524 6.96803906 192.08136267 C7.15226907 207.94137161 7.25327781 223.80021236 7.27329856 239.66129297 C7.28660512 248.56269895 7.33610212 257.46065363 7.47888756 266.3610096 C7.60027429 273.94247761 7.64605724 281.51971818 7.59459629 289.10206426 C7.57063716 292.96923808 7.58157395 296.82764593 7.68981171 300.69357109 C8.28643146 323.21580862 8.28643146 323.21580862 2.85260797 329.47263408 C-2.37505693 333.69550729 -8.09185806 336.37802731 -14.30391252 338.84524333 C-18.31432221 340.56293512 -21.79725374 342.90443858 -25.375 345.375 C-26.73764547 346.27248044 -28.10203481 347.16732307 -29.46875 348.05859375 C-30.53996094 348.75831299 -30.53996094 348.75831299 -31.6328125 349.47216797 C-36.34628846 352.51434336 -41.11371297 355.47094972 -45.875 358.4375 C-53.09639173 362.93801686 -60.31086333 367.44811535 -67.5 372 C-83.13817329 381.89435793 -98.83834009 391.69065645 -114.58666992 401.40869141 C-118.66868305 403.92913434 -122.74129564 406.46226346 -126.79296875 409.03125 C-127.90961914 409.73737427 -127.90961914 409.73737427 -129.04882812 410.45776367 C-130.43668514 411.33689822 -131.82225045 412.21966507 -133.20507812 413.10668945 C-137.77800313 416 -137.77800313 416 -140 416 C-140.3664168 375.69331266 -140.64825158 335.38684281 -140.81704527 295.078822 C-140.83705599 290.31751924 -140.85776521 285.55621975 -140.87890625 280.79492188 C-140.88310322 279.8470541 -140.88730018 278.89918633 -140.89162433 277.92259529 C-140.96120039 262.5851241 -141.08732619 247.24861481 -141.23444474 231.91171381 C-141.38419965 216.16838314 -141.47296712 200.42555536 -141.50541592 184.68154168 C-141.52734507 174.97005826 -141.59652973 165.26129356 -141.72666347 155.55064741 C-141.81140407 148.88680566 -141.83676715 142.22436403 -141.81602204 135.56002292 C-141.80579455 131.71676815 -141.8211739 127.87825252 -141.9072876 124.03584671 C-142.42404714 99.80645546 -142.42404714 99.80645546 -136.48823547 93.58246613 C-133.20252607 90.83001877 -129.7267644 88.76749822 -125.86730576 86.92348146 C-123.38627461 85.69648033 -121.27123831 84.10933517 -119.09765625 82.40625 C-117.75387341 81.43574017 -116.40884873 80.46694713 -115.0625 79.5 C-114.32 78.96503906 -113.5775 78.43007813 -112.8125 77.87890625 C-107.03157721 73.72172827 -101.21613582 69.61446858 -95.39257812 65.51733398 C-87.20830001 59.75225442 -79.10585204 53.87456374 -71 48 C-61.50530813 41.11890073 -51.99235011 34.26939301 -42.40087891 27.52368164 C-37.17745194 23.84477738 -31.98889597 20.11973203 -26.8125 16.375 C-26.06597168 15.83657471 -25.31944336 15.29814941 -24.55029297 14.7434082 C-20.98269983 12.16846519 -17.4269463 9.58006096 -13.89453125 6.95703125 C-13.25604248 6.48797363 -12.61755371 6.01891602 -11.9597168 5.53564453 C-10.77188018 4.66282566 -9.58934703 3.7827233 -8.41333008 2.89404297 C-5.21234671 0.55597604 -4.12693675 0 0 0 Z " fill="#FCFBFC" transform="translate(730,611)"/>
<path d="M0 0 C0.66 0.33 1.32 0.66 2 1 C0.68 3.31 -0.64 5.62 -2 8 C-2.66 8 -3.32 8 -4 8 C-4.66 9.32 -5.32 10.64 -6 12 C-6.99 12 -7.98 12 -9 12 C-6.03 8.04 -3.06 4.08 0 0 Z " fill="#1B1C1C" transform="translate(792,576)"/>
<path d="M0 0 C0.66 0.33 1.32 0.66 2 1 C0.35 2.65 -1.3 4.3 -3 6 C-3.99 5.67 -4.98 5.34 -6 5 C-4.06745228 2.9754262 -2.36841312 1.57894208 0 0 Z " fill="#151616" transform="translate(675,974)"/>
</svg>
